<?xml version="1.0" standalone="no"?>
<!DOCTYPE svg PUBLIC "-//W3C//DTD SVG 20010904//EN"
 "http://www.w3.org/TR/2001/REC-SVG-20010904/DTD/svg10.dtd">
<svg version="1.0" xmlns="http://www.w3.org/2000/svg"
 width="501.000000pt" height="501.000000pt" viewBox="0 0 501.000000 501.000000"
 preserveAspectRatio="xMidYMid meet">
<g transform="translate(0.000000,501.000000) scale(0.100000,-0.100000)"
fill="#000000" stroke="none">
<path d="M0 2539 l0 -1030 533 3 532 4 96 26 c264 72 465 208 595 405 127 191
181 397 171 653 -20 508 -336 867 -841 955 -72 12 -183 15 -587 15 l-499 0 0
-1031z m932 450 c76 -16 149 -53 207 -105 181 -163 171 -543 -18 -693 -90 -71
-199 -101 -373 -101 l-98 0 0 455 0 455 115 0 c62 0 138 -5 167 -11z"/>
<path d="M2200 2480 l0 -1030 608 0 c655 1 692 3 827 54 207 79 318 228 340
456 23 235 -124 469 -333 531 l-43 12 71 33 c83 39 166 116 204 192 81 159 71
388 -21 535 -61 96 -184 179 -330 219 -76 22 -96 22 -700 26 l-623 3 0 -1031z
m996 494 c43 -21 66 -64 66 -124 0 -115 -46 -140 -262 -140 l-150 0 0 140 0
140 156 0 c124 0 163 -3 190 -16z m52 -744 c81 -50 81 -193 0 -237 -28 -15
-62 -19 -215 -21 l-183 -4 0 141 0 141 183 0 c165 0 185 -2 215 -20z"/>
<path d="M4489 2107 c-195 -66 -280 -268 -190 -445 25 -49 101 -119 155 -143
110 -48 271 -44 382 11 121 59 179 159 172 293 -5 109 -53 190 -148 253 -85
56 -255 70 -371 31z"/>
</g>
</svg>
