<svg width="168" height="24" viewBox="0 0 168 24" fill="none" xmlns="http://www.w3.org/2000/svg">
<path d="M6.22926 2.55371C7.79187 2.55371 9.1609 2.87044 10.3364 3.50394C11.5118 4.13739 12.4163 5.01724 13.0498 6.14343C13.6832 7.26963 14 8.55068 14 9.98657C14 11.4084 13.6832 12.6894 13.0498 13.8297C12.4163 14.97 11.5118 15.8674 10.3364 16.522C9.1609 17.1766 7.79187 17.5039 6.22926 17.5039H0V2.55371H6.22926ZM5.80695 13.3229C6.86276 13.3229 7.70033 13.0343 8.31973 12.4572C8.93919 11.88 9.24889 11.0564 9.24889 9.98657C9.24889 8.91671 8.93919 8.09314 8.31973 7.51598C7.70033 6.93881 6.86276 6.65022 5.80695 6.65022H4.68777V13.3229H5.80695Z" fill="#F9FAFB"/>
<path d="M18.012 4.64554C17.1955 4.64554 16.541 4.42733 16.0482 3.99097C15.5555 3.55456 15.3092 3.00553 15.3092 2.34389C15.3092 1.66815 15.5555 1.10859 16.0482 0.665153C16.541 0.221718 17.1955 0 18.012 0C18.8144 0 19.462 0.221718 19.9547 0.665153C20.4474 1.10859 20.6938 1.66815 20.6938 2.34389C20.6938 3.00553 20.4474 3.55456 19.9547 3.99097C19.462 4.42733 18.8144 4.64554 18.012 4.64554ZM20.377 18.3288C20.377 21.5807 18.7441 23.2066 15.4781 23.2066H13.9155V19.2157H14.8235C15.1332 19.2157 15.3549 19.1524 15.4887 19.0256C15.6224 18.8989 15.6893 18.6948 15.6893 18.4133V5.59576H20.377V18.3288Z" fill="#F9FAFB"/>
<path d="M21.813 11.5484C21.813 10.2955 22.0277 9.20804 22.457 8.28596C22.8864 7.36387 23.4741 6.65999 24.2202 6.17437C24.9663 5.6887 25.804 5.44586 26.7331 5.44586C27.5073 5.44586 28.176 5.60422 28.7391 5.92095C29.3022 6.23767 29.7315 6.67058 30.0272 7.2196V5.59364H34.6938V17.5031H30.0272V15.8772C29.7315 16.4262 29.3022 16.8591 28.7391 17.1758C28.176 17.4926 27.5073 17.651 26.7331 17.651C25.804 17.651 24.9663 17.4081 24.2202 16.9225C23.4741 16.4368 22.8864 15.7329 22.457 14.8108C22.0277 13.8888 21.813 12.8013 21.813 11.5484ZM30.0272 11.5484C30.0272 10.9149 29.8653 10.4222 29.5415 10.0703C29.2177 9.71834 28.8024 9.54237 28.2956 9.54237C27.7889 9.54237 27.3736 9.71834 27.0498 10.0703C26.726 10.4222 26.5641 10.9149 26.5641 11.5484C26.5641 12.1819 26.726 12.6746 27.0498 13.0266C27.3736 13.3785 27.7889 13.5544 28.2956 13.5544C28.8024 13.5544 29.2177 13.3785 29.5415 13.0266C29.8653 12.6746 30.0272 12.1819 30.0272 11.5484Z" fill="#F9FAFB"/>
<path d="M45.1463 5.51251C46.5118 5.51251 47.5781 5.97004 48.3454 6.88511C49.1126 7.80012 49.4962 9.03893 49.4962 10.6015V17.5065H44.8295V11.1927C44.8295 10.6297 44.6782 10.1827 44.3755 9.85191C44.0728 9.52109 43.6681 9.35565 43.1613 9.35565C42.6405 9.35565 42.2322 9.52109 41.9366 9.85191C41.641 10.1827 41.4932 10.6297 41.4932 11.1927V17.5065H36.8054V5.59699H41.4932V7.41296C41.8592 6.84989 42.3484 6.39236 42.9607 6.04042C43.5731 5.68848 44.3016 5.51251 45.1463 5.51251Z" fill="#F9FAFB"/>
<path d="M55.81 5.44586C56.5843 5.44586 57.253 5.60422 57.816 5.92095C58.3791 6.23767 58.8085 6.67058 59.1041 7.2196V5.59364H63.7708V17.292C63.7708 18.4041 63.5667 19.4177 63.1584 20.3327C62.7502 21.2478 62.0921 21.9798 61.1841 22.5288C60.2761 23.0778 59.1112 23.3523 57.6894 23.3523C55.7748 23.3523 54.258 22.9054 53.1388 22.0114C52.0197 21.1175 51.3827 19.9034 51.2278 18.3689H55.8311C55.9578 18.9883 56.4646 19.298 57.3515 19.298C57.9005 19.298 58.3299 19.1572 58.6396 18.8757C58.9493 18.5942 59.1041 18.0663 59.1041 17.292V15.8772C58.8085 16.4262 58.3791 16.8591 57.816 17.1758C57.253 17.4926 56.5843 17.651 55.81 17.651C54.8809 17.651 54.0433 17.4081 53.2972 16.9225C52.5511 16.4368 51.9633 15.7329 51.534 14.8108C51.1046 13.8888 50.89 12.8013 50.89 11.5484C50.89 10.2955 51.1046 9.20804 51.534 8.28595C51.9633 7.36387 52.5511 6.65999 53.2972 6.17437C54.0433 5.6887 54.8809 5.44586 55.81 5.44586ZM59.1041 11.5484C59.1041 10.9149 58.9422 10.4222 58.6185 10.0703C58.2947 9.71834 57.8794 9.54237 57.3726 9.54237C56.8658 9.54237 56.4506 9.71834 56.1268 10.0703C55.803 10.4222 55.6411 10.9149 55.6411 11.5484C55.6411 12.1819 55.803 12.6746 56.1268 13.0266C56.4506 13.3785 56.8658 13.5544 57.3726 13.5544C57.8794 13.5544 58.2947 13.3785 58.6185 13.0266C58.9422 12.6746 59.1041 12.1819 59.1041 11.5484Z" fill="#F9FAFB"/>
<path d="M71.5415 17.651C70.3449 17.651 69.268 17.4046 68.3107 16.9119C67.3535 16.4192 66.6038 15.7118 66.0618 14.7897C65.5199 13.8677 65.2489 12.7872 65.2489 11.5484C65.2489 10.3096 65.5199 9.22916 66.0618 8.30707C66.6038 7.38499 67.3535 6.6776 68.3107 6.1849C69.268 5.69221 70.3449 5.44586 71.5415 5.44586C72.7381 5.44586 73.815 5.69221 74.7723 6.1849C75.7295 6.6776 76.4792 7.38499 77.0211 8.30707C77.5631 9.22916 77.8341 10.3096 77.8341 11.5484C77.8341 12.7872 77.5631 13.8677 77.0211 14.7897C76.4792 15.7118 75.7295 16.4192 74.7723 16.9119C73.815 17.4046 72.7381 17.651 71.5415 17.651ZM71.5415 13.5966C71.9779 13.5966 72.3439 13.4242 72.6395 13.0793C72.9352 12.7344 73.083 12.2241 73.083 11.5484C73.083 10.8727 72.9352 10.3624 72.6395 10.0175C72.3439 9.6726 71.9779 9.50014 71.5415 9.50014C71.1051 9.50014 70.7391 9.6726 70.4435 10.0175C70.1478 10.3624 70 10.8727 70 11.5484C70 12.2241 70.1443 12.7344 70.4329 13.0793C70.7215 13.4242 71.091 13.5966 71.5415 13.5966Z" fill="#F9FAFB"/>
<path d="M92.9107 9.83871C93.8117 10.0499 94.5121 10.4828 95.0118 11.1374C95.5116 11.792 95.7614 12.5486 95.7614 13.4074C95.7614 14.7166 95.3286 15.7266 94.4628 16.4375C93.5971 17.1484 92.3547 17.5039 90.7358 17.5039H82.9017V2.55368H90.5246C92.045 2.55368 93.2416 2.8845 94.1144 3.54614C94.9872 4.20773 95.4236 5.17206 95.4236 6.43901C95.4236 7.31183 95.1948 8.04737 94.7373 8.64565C94.2798 9.24394 93.671 9.64163 92.9107 9.83871ZM87.5895 8.3817H89.4055C89.8278 8.3817 90.141 8.29728 90.3451 8.12833C90.5493 7.95938 90.6513 7.69894 90.6513 7.34705C90.6513 6.98101 90.5493 6.71004 90.3451 6.53407C90.141 6.3581 89.8278 6.27011 89.4055 6.27011H87.5895V8.3817ZM89.7222 13.7452C90.1445 13.7452 90.4577 13.6643 90.6619 13.5024C90.866 13.3405 90.9681 13.0765 90.9681 12.7105C90.9681 11.9926 90.5528 11.6336 89.7222 11.6336H87.5895V13.7452H89.7222Z" fill="#F9FAFB"/>
<path d="M109.951 5.59454V17.504H105.264V15.6881C104.898 16.2511 104.408 16.7087 103.796 17.0606C103.184 17.4125 102.455 17.5885 101.611 17.5885C100.245 17.5885 99.1787 17.131 98.4114 16.216C97.6443 15.3009 97.2606 14.0621 97.2606 12.4995V5.59454H101.927V11.9083C101.927 12.4714 102.079 12.9184 102.381 13.2492C102.684 13.58 103.089 13.7454 103.595 13.7454C104.116 13.7454 104.525 13.58 104.82 13.2492C105.116 12.9184 105.264 12.4714 105.264 11.9083V5.59454H109.951Z" fill="#F9FAFB"/>
<path d="M111.43 11.548C111.43 10.2951 111.645 9.20766 112.074 8.28557C112.503 7.36349 113.091 6.65961 113.837 6.17399C114.583 5.68832 115.421 5.44548 116.35 5.44548C117.124 5.44548 117.789 5.60384 118.345 5.92057C118.901 6.23729 119.327 6.6702 119.623 7.21922V1.87683H124.311V17.5028H119.623V15.8768C119.327 16.4258 118.901 16.8587 118.345 17.1755C117.789 17.4922 117.124 17.6506 116.35 17.6506C115.421 17.6506 114.583 17.4078 113.837 16.9221C113.091 16.4364 112.503 15.7325 112.074 14.8104C111.645 13.8884 111.43 12.8009 111.43 11.548ZM119.644 11.548C119.644 10.9145 119.482 10.4218 119.158 10.0699C118.835 9.71796 118.419 9.54199 117.912 9.54199C117.406 9.54199 116.99 9.71796 116.667 10.0699C116.343 10.4218 116.181 10.9145 116.181 11.548C116.181 12.1815 116.343 12.6742 116.667 13.0262C116.99 13.3781 117.406 13.554 117.912 13.554C118.419 13.554 118.835 13.3781 119.158 13.0262C119.482 12.6742 119.644 12.1815 119.644 11.548Z" fill="#F9FAFB"/>
<path d="M130.709 5.44586C131.483 5.44586 132.152 5.60422 132.715 5.92095C133.278 6.23767 133.708 6.67058 134.003 7.2196V5.59364H138.67V17.292C138.67 18.4041 138.466 19.4177 138.058 20.3327C137.649 21.2478 136.991 21.9798 136.083 22.5288C135.175 23.0778 134.01 23.3523 132.588 23.3523C130.674 23.3523 129.157 22.9054 128.038 22.0114C126.919 21.1175 126.282 19.9034 126.127 18.3689H130.73C130.857 18.9883 131.364 19.298 132.251 19.298C132.8 19.298 133.229 19.1572 133.539 18.8757C133.848 18.5942 134.003 18.0663 134.003 17.292V15.8772C133.708 16.4262 133.278 16.8591 132.715 17.1758C132.152 17.4926 131.483 17.651 130.709 17.651C129.78 17.651 128.942 17.4081 128.196 16.9225C127.45 16.4368 126.862 15.7329 126.433 14.8108C126.004 13.8888 125.789 12.8013 125.789 11.5484C125.789 10.2955 126.004 9.20804 126.433 8.28595C126.862 7.36387 127.45 6.65999 128.196 6.17437C128.942 5.6887 129.78 5.44586 130.709 5.44586ZM134.003 11.5484C134.003 10.9149 133.841 10.4222 133.518 10.0703C133.194 9.71834 132.779 9.54237 132.272 9.54237C131.765 9.54237 131.35 9.71834 131.026 10.0703C130.702 10.4222 130.54 10.9149 130.54 11.5484C130.54 12.1819 130.702 12.6746 131.026 13.0266C131.35 13.3785 131.765 13.5544 132.272 13.5544C132.779 13.5544 133.194 13.3785 133.518 13.0266C133.841 12.6746 134.003 12.1819 134.003 11.5484Z" fill="#F9FAFB"/>
<path d="M152.31 11.4428C152.31 11.7666 152.289 12.0763 152.247 12.3719H144.709C144.779 13.3996 145.208 13.9134 145.997 13.9134C146.503 13.9134 146.869 13.6811 147.095 13.2166H152.057C151.888 14.0612 151.533 14.8179 150.991 15.4866C150.449 16.1552 149.766 16.6831 148.942 17.0703C148.119 17.4574 147.214 17.651 146.229 17.651C145.046 17.651 143.994 17.4046 143.072 16.9119C142.15 16.4192 141.432 15.7118 140.918 14.7897C140.404 13.8677 140.148 12.7872 140.148 11.5484C140.148 10.3096 140.404 9.22916 140.918 8.30707C141.432 7.38499 142.15 6.6776 143.072 6.1849C143.994 5.69221 145.046 5.44586 146.229 5.44586C147.411 5.44586 148.464 5.6887 149.386 6.17437C150.308 6.65999 151.026 7.35334 151.54 8.2543C152.054 9.15522 152.31 10.2181 152.31 11.4428ZM147.559 10.3237C147.559 9.92948 147.433 9.63036 147.179 9.42625C146.926 9.22209 146.609 9.12006 146.229 9.12006C145.398 9.12006 144.913 9.52126 144.772 10.3237H147.559Z" fill="#F9FAFB"/>
<path d="M161.2 13.5133V17.5042H159.427C156.161 17.5042 154.528 15.8783 154.528 12.6264V9.50119H153.05V5.59469H154.528V2.7229H159.216V5.59469H161.158V9.50119H159.216V12.7108C159.216 12.9924 159.282 13.1965 159.416 13.3232C159.55 13.4499 159.772 13.5133 160.081 13.5133H161.2Z" fill="#F9FAFB"/>
<path d="M165.318 17.6756C164.502 17.6756 163.847 17.4574 163.354 17.021C162.862 16.5845 162.615 16.0356 162.615 15.3739C162.615 14.6982 162.862 14.1386 163.354 13.6952C163.847 13.2517 164.502 13.03 165.318 13.03C166.121 13.03 166.768 13.2517 167.261 13.6952C167.754 14.1386 168 14.6982 168 15.3739C168 16.0356 167.754 16.5845 167.261 17.021C166.768 17.4574 166.121 17.6756 165.318 17.6756Z" fill="#A4CAFE"/>
</svg>
